<svg width="264.58332" height="230.94816" xmlns="http://www.w3.org/2000/svg">

 <metadata id="metadata5">image/svg+xml</metadata>
 <g>
  <title>background</title>
  <rect fill="none" id="canvas_background" height="602" width="802" y="-1" x="-1"/>
 </g>
 <g>
  <title>Layer 1</title>
  <g id="layer1">
   <g fill="#ffffff" transform="matrix(1.3212521,0,0,1.3212521,480.52565,-75.040147) " id="g80302">
    <path fill="#ffffff" stroke-width="0.011" stroke-linecap="square" stroke-linejoin="round" stroke-miterlimit="2.6131" d="m-349.72364,71.16776c-6.88566,0 -13.96596,5.51768 -13.96596,15.17562c0,8.82926 6.22524,15.06562 13.96596,15.06562c6.38958,0 9.23732,-4.28876 9.23732,-4.28876l0,1.86946c0,0.8836 0.83542,1.86946 1.86946,1.86946l4.61866,0l0,-29.03158l-6.48812,0l0,3.68394c0,0 -2.8716,-4.34376 -9.23732,-4.34376zm1.15574,5.93636c5.66836,0 8.64172,4.9851 8.64172,9.2371c0,4.73604 -3.5303,9.23388 -8.6297,9.2339c-4.26278,0 -8.53284,-3.45238 -8.53284,-9.2964c0,-5.27526 3.67466,-9.1746 8.52082,-9.1746z" id="path825"/>
    <path fill="#ffffff" stroke-width="0.011" stroke-linecap="square" stroke-linejoin="round" stroke-miterlimit="2.6131" d="m-324.98082,100.85918c-0.99682,0 -1.86946,-0.71498 -1.86946,-1.86946l0,-27.16212l6.48812,0l0,3.59262c1.47022,-2.20986 4.34254,-4.26128 8.75132,-4.26128c7.2059,0 11.04296,5.74422 11.04296,11.11564l0,18.5846l-4.5087,0c-1.18224,0 -1.97942,-0.9897 -1.97942,-1.97942l0,-15.1756c0,-2.97738 -1.82422,-6.59332 -6.04314,-6.59332c-4.55234,0 -7.26302,4.30228 -7.26302,8.3528l0,15.39554l-4.61866,0z" id="path829"/>
    <path fill="#ffffff" stroke-width="0.011" stroke-linecap="square" stroke-linejoin="round" stroke-miterlimit="2.6131" id="path833" d="m-281.65338,71.16776c-6.88564,0 -13.96594,5.51768 -13.96594,15.17562c0,8.82926 6.22524,15.06562 13.96594,15.06562c6.38958,0 9.23734,-4.28876 9.23734,-4.28876l0,1.86946c0,0.8836 0.83542,1.86946 1.86946,1.86946l4.61866,0l0,-43.54736l-6.48812,0l0,18.1997c0,0 -2.87162,-4.34374 -9.23734,-4.34374zm1.15576,5.93636c5.66836,0 8.64172,4.9851 8.64172,9.2371c0,4.73604 -3.53032,9.23388 -8.6297,9.2339c-4.26278,0 -8.53284,-3.45238 -8.53284,-9.2964c0,-5.27528 3.67464,-9.1746 8.52082,-9.1746z"/>
    <path fill="#ffffff" stroke-width="0.011" stroke-linecap="square" stroke-linejoin="round" stroke-miterlimit="2.6131" id="path835" d="m-256.91054,100.85918c-0.99682,0 -1.86946,-0.71498 -1.86946,-1.86946l0,-27.16212l6.48812,0l0,4.8386c1.11676,-2.7106 3.52662,-5.1685 7.80774,-5.1685c1.19346,0 2.30934,0.21994 2.30934,0.21994l0,6.70804c0,0 -1.39338,-0.54984 -3.07912,-0.54984c-4.55234,0 -7.03796,4.30228 -7.03796,8.35282l0,14.63052l-4.61866,0z"/>
    <path fill="#ffffff" stroke-width="0.011" stroke-linecap="square" stroke-linejoin="round" stroke-miterlimit="2.6131" d="m-202.80622,100.85918c-0.99682,0 -1.86946,-0.71498 -1.86946,-1.86946l0,-27.16212l6.48812,0l0,29.03158l-4.61866,0z" id="path837"/>
    <path fill="#ffffff" stroke-width="0.011" stroke-linecap="square" stroke-linejoin="round" stroke-miterlimit="2.6131" d="m-179.16306,71.16776c-6.88566,0 -13.96596,5.51768 -13.96596,15.17562c0,8.82926 6.22524,15.06562 13.96596,15.06562c6.38956,0 9.23731,-4.28876 9.23731,-4.28876l0,1.86946c0,0.8836 0.83542,1.86946 1.86946,1.86946l4.61866,0l0,-43.54736l-6.48812,0l0,18.1997c0,0 -2.87159,-4.34374 -9.23731,-4.34374zm1.15574,5.93636c5.66836,0 8.64171,4.9851 8.64171,9.2371c0,4.73604 -3.53029,9.23388 -8.62969,9.2339c-4.26278,0 -8.53284,-3.45238 -8.53284,-9.2964c0,-5.27528 3.67466,-9.1746 8.52082,-9.1746z" id="path839"/>
    <circle fill="#ffffff" stroke-width="0.01384" stroke-linecap="square" stroke-linejoin="round" stroke-miterlimit="2.6131" id="path841" cx="-201.48269" cy="61.27458" r="4.29126"/>
    <path fill="#ffffff" stroke-width="0.011" stroke-linecap="square" stroke-linejoin="round" stroke-miterlimit="2.6131" d="m-225.06402,71.1581c-7.21114,0 -15.13372,5.38276 -15.13372,15.13372c0,8.88566 6.74818,15.11826 15.11804,15.11826c10.315,0 15.35172,-8.29218 15.35172,-15.06198c0,-8.30724 -6.48568,-15.19 -15.33604,-15.19zm0.0236,6.059c4.9867,0 8.70638,4.01914 8.70638,9.09298c0,5.16184 -3.94862,9.14498 -8.69156,9.14498c-4.40284,0 -8.68276,-3.583 -8.68276,-9.0582c0,-5.56646 4.07064,-9.17976 8.66794,-9.17976z" id="path843"/>
   </g>
   <path fill="#ffffff" stroke-width="0.28784" class="st0" d="m196.86615,127.17368l21.93313,-37.99441c1.2377,-2.12998 0.48933,-4.83565 -1.61189,-6.07335c-2.1012,-1.23768 -4.83565,-0.5181 -6.04456,1.61189l-22.22097,38.48374c-16.95357,-7.74281 -36.03711,-12.06035 -56.55987,-12.06035c-20.52274,0 -39.60629,4.31754 -56.55986,12.06035l-22.22097,-38.48374c-1.2377,-2.12999 -3.94336,-2.84957 -6.07335,-1.61189c-2.13,1.2377 -2.84959,3.94337 -1.61189,6.07335l21.93314,37.99441c-37.82171,20.49397 -63.43916,58.77621 -67.67035,103.59235l264.40657,0c-4.2312,-44.81614 -29.84866,-83.09838 -67.69913,-103.59235zm-125.20887,66.46144c-6.13092,0 -11.0817,-4.97957 -11.0817,-11.08169c0,-6.13093 4.97957,-11.0817 11.0817,-11.0817c6.13092,0 11.08171,4.97956 11.08171,11.0817c0.0289,6.10212 -4.95079,11.08169 -11.08171,11.08169zm121.38064,0c-6.13091,0 -11.08172,-4.97957 -11.08172,-11.08169c0,-6.13093 4.97958,-11.0817 11.08172,-11.0817c6.13093,0 11.0817,4.97956 11.0817,11.0817c0.0288,6.10212 -4.95077,11.08169 -11.0817,11.08169z" id="path80319"/>
  </g>
 </g>
</svg>