<svg xmlns="http://www.w3.org/2000/svg" xmlns:xlink="http://www.w3.org/1999/xlink" viewBox="0 0 404.96 310.45"><defs><linearGradient id="Dégradé_sans_nom_221" x1="265.69" y1="99.89" x2="265.8" y2="99.99" gradientUnits="userSpaceOnUse"><stop offset="0" stop-color="#1d1d1b"/><stop offset="1" stop-color="#1d1d1b" stop-opacity="0"/></linearGradient><linearGradient id="Dégradé_sans_nom_221-2" x1="265.26" y1="98.4" x2="266.22" y2="99.36" xlink:href="#Dégradé_sans_nom_221"/><linearGradient id="Dégradé_sans_nom_17" x1="145.08" y1="49.96" x2="282.4" y2="187.28" gradientUnits="userSpaceOnUse"><stop offset="0" stop-color="#fff"/><stop offset="1" stop-color="#fff" stop-opacity="0"/></linearGradient><linearGradient id="Dégradé_sans_nom_16" x1="202.09" y1="107.15" x2="343.99" y2="249.05" xlink:href="#Dégradé_sans_nom_17"/><clipPath id="clip-path"><path d="M.5.5V309.94h404V.5ZM277.14,98.3c0,27.4-19.43,50.8-45.46,55.78L239.6,184a3.91,3.91,0,0,1-1.61,4.25L205.4,209.88a3.9,3.9,0,0,1-4.32,0l-33.19-22.06a3.91,3.91,0,0,1-1.74-3.25V163.08A74.57,74.57,0,0,1,128,100c0-.2,0-.39,0-.59,0-.49,0-1,0-1.48a74.6,74.6,0,0,1,74.59-74.59c.77,0,1.54,0,2.31,0l1.27,0c.42,0,.84,0,1.25.07l1.06.08A74.56,74.56,0,0,1,277.14,98Z" style="fill:none"/></clipPath><linearGradient id="Dégradé_sans_nom_18" x1="202.36" y1="10.9" x2="282.53" y2="91.08" gradientTransform="translate(107.07 -156.5) rotate(45)" xlink:href="#Dégradé_sans_nom_17"/><linearGradient id="Dégradé_sans_nom_18-2" x1="263.01" y1="78.05" x2="351.27" y2="78.05" gradientTransform="translate(145.15 -194.32) rotate(45)" xlink:href="#Dégradé_sans_nom_17"/><linearGradient id="Dégradé_sans_nom_18-3" x1="284.83" y1="143.03" x2="373.09" y2="143.03" gradientTransform="translate(197.49 -190.72) rotate(45)" xlink:href="#Dégradé_sans_nom_17"/><linearGradient id="Dégradé_sans_nom_18-4" x1="133.6" y1="78.2" x2="221.86" y2="78.2" gradientTransform="translate(107.35 -102.77) rotate(45)" xlink:href="#Dégradé_sans_nom_17"/><linearGradient id="Dégradé_sans_nom_18-5" x1="111.99" y1="143.05" x2="200.25" y2="143.05" gradientTransform="translate(146.88 -68.5) rotate(45)" xlink:href="#Dégradé_sans_nom_17"/></defs><g id="Calque_2" data-name="Calque 2"><g id="Calque_27" data-name="Calque 27"><rect x="0.5" y="0.5" width="403.96" height="309.45" style="fill:#1d1d1b;stroke:#fff;stroke-miterlimit:10;opacity:0"/></g><g id="Calque_26" data-name="Calque 26"><path d="M265.74,100c0-.07,0-.15,0-.21V100Z" style="fill:url(#Dégradé_sans_nom_221)"/><path d="M265.77,98c0,.62,0,1.24,0,1.86q0-.93-.06-1.86Z" style="fill:url(#Dégradé_sans_nom_221-2)"/><path d="M225.16,78.35l.16.1c-.13,0-.26.07-.38.12Z" style="fill:#fff"/><path d="M265.75,99.83V100h0C265.74,100,265.75,99.89,265.75,99.83Z" style="fill:#fff"/><path d="M259.47,49.76a74.37,74.37,0,0,0-51-26.14l-1.06-.08c-.41,0-.83-.05-1.25-.07l-1.27,0c-.77,0-1.54,0-2.31,0A74.6,74.6,0,0,0,128,98c0,.49,0,1,0,1.48,0,.2,0,.39,0,.59a74.75,74.75,0,0,0,38.15,63v21.49a3.86,3.86,0,0,0,.49,1.89l58.29,58.29L339.69,130ZM225.32,78.45c-.13,0-.26.07-.38.12l.22-.22ZM175.94,98c0,.52-.05,1-.05,1.58v.21a2.62,2.62,0,0,0,0,.28V98Zm89.8,2.07c0-.07,0-.15,0-.21V100Z" style="opacity:0.15;fill:url(#Dégradé_sans_nom_17)"/><path d="M401.06,192,284.64,304.46,168.22,188l32.86,21.84a3.9,3.9,0,0,0,4.32,0L238,188.21A3.91,3.91,0,0,0,239.6,184l-7.92-29.88c26-5,45.46-28.38,45.46-55.78V98a74.25,74.25,0,0,0-17.67-48.21Z" style="opacity:0.15;fill:url(#Dégradé_sans_nom_16)"/><path d="M277.14,98.3c0,27.4-19.43,50.8-45.46,55.78L239.6,184a3.91,3.91,0,0,1-1.61,4.25L205.4,209.88a3.9,3.9,0,0,1-4.32,0l-33.19-22.06a3.91,3.91,0,0,1-1.74-3.25V163.08A74.57,74.57,0,0,1,128,100c0-.2,0-.39,0-.59,0-.49,0-1,0-1.48a74.6,74.6,0,0,1,74.59-74.59c.77,0,1.54,0,2.31,0l1.27,0c.42,0,.84,0,1.25.07l1.06.08A74.56,74.56,0,0,1,277.14,98Z" style="fill:none"/><path d="M225.16,78.35l.16.1c-.13,0-.26.07-.38.12Z" style="fill:#fff"/><path d="M265.75,99.83V100h0C265.74,100,265.75,99.89,265.75,99.83Z" style="fill:#fff"/><path d="M265.74,100h0v-.21C265.75,99.89,265.74,100,265.74,100Z" style="fill:#fff"/><path d="M175.88,98V100q0-1,.06-2.07Z" style="fill:#fff"/><path d="M265.77,98c0,.63,0,1.24,0,1.86,0-.62,0-1.23-.06-1.86Z" style="fill:#fff"/><path d="M218.83,128.49a20.81,20.81,0,0,1,20.81-20.81v17.83a3,3,0,0,1-3,3Z" style="fill:#fff"/><path d="M277.14,98v.33c0,30.67-24.34,56.31-55,56.76a55.81,55.81,0,0,1-56.66-55.84V78.42a3.92,3.92,0,0,1,1.75-3.27l33.16-22a3.91,3.91,0,0,1,4.35,0l34.9,23.21-.24.14h.24V86.87A41.62,41.62,0,0,0,198,128.49a9.39,9.39,0,0,1-9.38-9.36,10.44,10.44,0,0,1,.22-2,52.12,52.12,0,0,1,36.45-38.63L204.74,64.78a3.91,3.91,0,0,0-4.35,0L177.63,79.9a4,4,0,0,0-1.75,3.27v16c0,25.19,20.61,46.3,45.8,45.82A45,45,0,0,0,265.75,100v-.21c0-.62,0-1.23,0-1.86A63.22,63.22,0,0,0,142,79.94c-.22.71-.42,1.43-.61,2.16,0,.2-.1.42-.15.64s-.18.71-.26,1.08-.21.88-.3,1.33a63,63,0,0,0-1,6.37c-.06.52-.1,1-.14,1.57,0,.08,0,.15,0,.22,0,.47-.06.94-.08,1.41s-.05.83-.05,1.23c0,.22,0,.44,0,.66,0,.45,0,.91,0,1.36q0,1,0,2.07A62.29,62.29,0,0,0,142,116a74.61,74.61,0,0,0,66.49,56.32c-1.94.16-3.92.24-5.89.24a74.32,74.32,0,0,1-26-4.66v11.91a3.89,3.89,0,0,0,1.74,3.25l22.78,15.15a3.92,3.92,0,0,0,4.33,0l22.77-15.15a3.89,3.89,0,0,0,1.74-3.25v-32.4L239.6,184a3.91,3.91,0,0,1-1.62,4.25L205.4,209.88a3.92,3.92,0,0,1-4.33,0l-33.18-22.06a3.89,3.89,0,0,1-1.74-3.25V163.08A74.57,74.57,0,0,1,128,100c0-.2,0-.38,0-.58,0-.5,0-1,0-1.49a74.6,74.6,0,0,1,74.59-74.59c.76,0,1.54,0,2.31,0l1.27,0c.42,0,.84,0,1.25.07l1.06.08A74.57,74.57,0,0,1,277.14,98Z" style="fill:#fff"/><path d="M239.64,102.48a26,26,0,0,0-26,26h-10.4a36.42,36.42,0,0,1,36.41-36.42Z" style="fill:#fff"/><circle cx="202.48" cy="11.05" r="5.72" style="fill:#fff"/><circle cx="267.27" cy="38.19" r="5.72" style="fill:#fff"/><circle cx="288.92" cy="102.99" r="5.72" style="fill:#fff"/><circle cx="116.04" cy="102.99" r="5.72" style="fill:#fff"/><circle cx="137.69" cy="38.19" r="5.72" style="fill:#fff"/></g><g id="Calque_30" data-name="Calque 30"><g style="clip-path:url(#clip-path)"><rect x="236.73" y="-5.7" width="11.43" height="113.39" transform="translate(34.95 186.37) rotate(-45)" style="opacity:0.15;fill:url(#Dégradé_sans_nom_18)"/><rect x="301.43" y="21.36" width="11.43" height="113.39" transform="translate(34.77 240.04) rotate(-45)" style="opacity:0.15;fill:url(#Dégradé_sans_nom_18-2)"/><rect x="323.25" y="86.34" width="11.43" height="113.39" transform="translate(-4.79 274.5) rotate(-45)" style="opacity:0.15;fill:url(#Dégradé_sans_nom_18-3)"/><rect x="172.01" y="21.5" width="11.43" height="113.39" transform="translate(-3.24 148.58) rotate(-45)" style="opacity:0.15;fill:url(#Dégradé_sans_nom_18-4)"/><rect x="150.41" y="86.36" width="11.43" height="113.39" transform="translate(-55.42 152.29) rotate(-45)" style="opacity:0.15;fill:url(#Dégradé_sans_nom_18-5)"/></g></g></g></svg>